<svg width="34" height="34" viewBox="0 0 34 34" fill="none" xmlns="http://www.w3.org/2000/svg">
<circle cx="17" cy="17" r="17" fill="#1384F7" fill-opacity="0.2"/>
<path d="M24.7269 14.7403L15.4637 23.7348C15.2817 23.9116 15.0654 24 14.8151 24C14.5647 24 14.3485 23.9116 14.1664 23.7348L9.27312 18.9834C9.09104 18.8066 9 18.5967 9 18.3536C9 18.1105 9.09104 17.9006 9.27312 17.7238L10.5249 16.5083C10.707 16.3315 10.9232 16.2431 11.1735 16.2431C11.4239 16.2431 11.6401 16.3315 11.8222 16.5083L14.8151 19.4144L22.1778 12.2652C22.3599 12.0884 22.5761 12 22.8265 12C23.0768 12 23.293 12.0884 23.4751 12.2652L24.7269 13.4807C24.909 13.6575 25 13.8674 25 14.1105C25 14.3536 24.909 14.5635 24.7269 14.7403Z" fill="#02919A"/>
</svg>
