<svg width="14" height="14" viewBox="0 0 14 14" fill="none" xmlns="http://www.w3.org/2000/svg">
<path d="M3.68094 1.63805L3.68098 1.63801C3.53925 1.49379 3.38991 1.42638 3.24784 1.42638C3.1026 1.42638 2.94787 1.4943 2.80366 1.63343L1.8351 2.60198C1.59351 2.84357 1.46572 3.12162 1.43546 3.45637C1.39461 3.97012 1.49398 4.53801 1.76062 5.24993L1.76069 5.25009C2.19068 6.41055 2.84114 7.49436 3.80973 8.66032C4.98502 10.0665 6.40136 11.1741 8.01476 11.9549C8.61011 12.2383 9.39722 12.568 10.2414 12.6221C10.2414 12.6221 10.2414 12.6221 10.2414 12.6221L10.2383 12.672C10.2825 12.6746 10.3294 12.6772 10.3737 12.6772C10.8347 12.6772 11.1915 12.5261 11.491 12.2032L3.68094 1.63805ZM3.68094 1.63805L3.68268 1.63967M3.68094 1.63805L3.68268 1.63967M3.68268 1.63967C3.83304 1.7788 3.9756 1.92376 4.12657 2.07727C4.1497 2.10078 4.17302 2.12449 4.1966 2.14842C4.24098 2.1941 4.28599 2.23977 4.33118 2.28561L4.33205 2.28649C4.37703 2.33212 4.4222 2.37794 4.46735 2.42437L4.46734 2.42438M3.68268 1.63967L4.46734 2.42438M4.46734 2.42438L4.46784 2.42487M4.46734 2.42438L4.46784 2.42487M4.46784 2.42487L5.24397 3.20101C5.40019 3.35723 5.47415 3.50934 5.47415 3.65269C5.47415 3.79604 5.40019 3.94815 5.24397 4.10437C5.20348 4.14487 5.16302 4.18598 5.12271 4.22694L5.12259 4.22707L5.12258 4.22707C5.08219 4.26812 5.04196 4.30899 5.00176 4.34919L5.00157 4.34938M4.46784 2.42487L5.00157 4.34938M5.00157 4.34938C4.98335 4.3678 4.96523 4.38613 4.94718 4.40438C4.72498 4.62916 4.51499 4.84159 4.28513 5.04511L4.28507 5.04504M5.00157 4.34938L4.28507 5.04504M4.28507 5.04504L4.28292 5.04719M4.28507 5.04504L4.28292 5.04719M4.28292 5.04719L4.28289 5.04722L4.28286 5.04725L4.28283 5.04728L4.2828 5.04732L4.28277 5.04735L4.28274 5.04738L4.28271 5.04741L4.28268 5.04744L4.28265 5.04747L4.28262 5.0475L4.28259 5.04753L4.28256 5.04756L4.28253 5.04759L4.2825 5.04762L4.28247 5.04764L4.28244 5.04767L4.28241 5.0477L4.28238 5.04773L4.28235 5.04776L4.28232 5.04779L4.28229 5.04782L4.28227 5.04785L4.28224 5.04788L4.28221 5.04791L4.28218 5.04794L4.28215 5.04797L4.28212 5.048L4.28209 5.04803L4.28206 5.04805L4.28203 5.04808L4.282 5.04811L4.28198 5.04814L4.28195 5.04817L4.28192 5.0482L4.28189 5.04823L4.28186 5.04826L4.28183 5.04828L4.2818 5.04831L4.28178 5.04834L4.28175 5.04837L4.28172 5.0484L4.28169 5.04843L4.28166 5.04845L4.28163 5.04848L4.28161 5.04851L4.28158 5.04854L4.28155 5.04857L4.28152 5.04859L4.28149 5.04862L4.28147 5.04865L4.28144 5.04868L4.28141 5.04871L4.28138 5.04873L4.28136 5.04876L4.28133 5.04879L4.2813 5.04882L4.28127 5.04884L4.28125 5.04887L4.28122 5.0489L4.28119 5.04893L4.28116 5.04895L4.28114 5.04898L4.28111 5.04901L4.28108 5.04903L4.28105 5.04906L4.28103 5.04909L4.281 5.04912L4.28097 5.04914L4.28095 5.04917L4.28092 5.0492L4.28089 5.04922L4.28087 5.04925L4.28084 5.04928L4.28081 5.0493L4.28079 5.04933L4.28076 5.04936L4.28073 5.04938L4.28071 5.04941L4.28068 5.04944L4.28065 5.04946L4.28063 5.04949L4.2806 5.04952L4.28057 5.04954L4.28055 5.04957L4.28052 5.0496L4.28049 5.04962L4.28047 5.04965L4.28044 5.04967L4.28042 5.0497L4.28039 5.04973L4.28036 5.04975L4.28034 5.04978L4.28031 5.04981L4.28029 5.04983L4.28026 5.04986L4.28023 5.04988L4.28021 5.04991L4.28018 5.04993L4.28016 5.04996L4.28013 5.04999L4.2801 5.05001L4.28008 5.05004L4.28005 5.05006L4.28003 5.05009L4.28 5.05011L4.27998 5.05014L4.27995 5.05017L4.27993 5.05019L4.2799 5.05022L4.27987 5.05024L4.27985 5.05027L4.27982 5.05029L4.2798 5.05032L4.27977 5.05034L4.27975 5.05037L4.27972 5.05039L4.2797 5.05042L4.27967 5.05044L4.27965 5.05047L4.27962 5.05049L4.2796 5.05052L4.27957 5.05054L4.27955 5.05057L4.27952 5.05059L4.2795 5.05062L4.27947 5.05064L4.27945 5.05067L4.27942 5.05069L4.2794 5.05072L4.27937 5.05074L4.27935 5.05077L4.27932 5.05079L4.2793 5.05082L4.27928 5.05084L4.27925 5.05087L4.27923 5.05089L4.2792 5.05092L4.27918 5.05094L4.27915 5.05096L4.27913 5.05099L4.2791 5.05101L4.27908 5.05104L4.27905 5.05106L4.27903 5.05109L4.27901 5.05111L4.27898 5.05114L4.27896 5.05116L4.27893 5.05118L4.27891 5.05121L4.27888 5.05123L4.27886 5.05126L4.27884 5.05128L4.27881 5.0513L4.27879 5.05133L4.27876 5.05135L4.27874 5.05138L4.27872 5.0514L4.27869 5.05142L4.27867 5.05145L4.27864 5.05147L4.27862 5.0515L4.2786 5.05152L4.27857 5.05154L4.27855 5.05157L4.27852 5.05159L4.2785 5.05162L4.27848 5.05164L4.27845 5.05166L4.27843 5.05169L4.27841 5.05171L4.27838 5.05173L4.27836 5.05176L4.27833 5.05178L4.27831 5.05181L4.27829 5.05183L4.27826 5.05185L4.27824 5.05188L4.27822 5.0519L4.27819 5.05192L4.27817 5.05195L4.27815 5.05197L4.27812 5.05199L4.2781 5.05202L4.27807 5.05204L4.27805 5.05207L4.27803 5.05209L4.278 5.05211L4.27798 5.05214L4.27796 5.05216L4.27793 5.05218L4.27791 5.05221L4.27789 5.05223L4.27786 5.05225L4.27784 5.05228L4.27782 5.0523L4.27779 5.05232L4.27777 5.05235L4.27775 5.05237L4.27772 5.05239L4.2777 5.05242L4.27768 5.05244L4.27765 5.05246L4.27763 5.05249L4.27761 5.05251L4.27758 5.05253L4.27756 5.05256L4.27754 5.05258L4.27752 5.0526L4.27749 5.05262L4.27747 5.05265L4.27745 5.05267L4.27742 5.05269L4.2774 5.05272L4.27738 5.05274L4.27735 5.05276L4.27733 5.05279L4.27731 5.05281L4.27728 5.05283L4.27726 5.05286L4.27724 5.05288L4.27721 5.0529L4.27719 5.05292L4.27717 5.05295L4.27715 5.05297L4.27712 5.05299L4.2771 5.05302L4.27708 5.05304L4.27705 5.05306L4.27703 5.05309L4.27701 5.05311L4.27698 5.05313L4.27696 5.05315L4.27694 5.05318L4.27692 5.0532L4.27689 5.05322L4.27687 5.05325L4.27685 5.05327L4.27682 5.05329L4.2768 5.05332L4.27678 5.05334L4.27676 5.05336L4.27673 5.05338L4.27671 5.05341L4.27669 5.05343L4.27666 5.05345L4.27664 5.05348L4.27662 5.0535L4.2766 5.05352L4.27657 5.05354L4.27655 5.05357L4.27653 5.05359L4.2765 5.05361L4.27648 5.05364L4.27646 5.05366L4.27643 5.05368L4.27641 5.0537L4.27639 5.05373L4.27637 5.05375L4.27634 5.05377L4.27632 5.0538L4.2763 5.05382L4.27627 5.05384L4.27625 5.05386L4.27623 5.05389L4.27621 5.05391L4.27618 5.05393L4.27616 5.05396L4.27614 5.05398L4.27611 5.054L4.27609 5.05403L4.27607 5.05405L4.27605 5.05407L4.27602 5.05409L4.276 5.05412L4.27598 5.05414L4.27595 5.05416L4.27593 5.05419L4.27591 5.05421L4.27589 5.05423L4.27586 5.05425L4.27584 5.05428L4.27582 5.0543L4.27579 5.05432L4.27577 5.05435L4.27575 5.05437L4.27572 5.05439L4.2757 5.05442L4.27568 5.05444L4.27566 5.05446L4.27563 5.05448L4.27561 5.05451L4.27559 5.05453L4.27556 5.05455L4.27554 5.05458L4.27552 5.0546L4.27549 5.05462L4.27547 5.05465L4.27545 5.05467L4.27542 5.05469L4.2754 5.05472L4.27538 5.05474L4.27536 5.05476L4.27533 5.05478L4.27531 5.05481L4.27529 5.05483L4.27526 5.05485L4.27524 5.05488L4.27522 5.0549L4.27519 5.05492L4.27517 5.05495L4.27515 5.05497L4.27512 5.05499L4.2751 5.05502L4.27508 5.05504L4.27505 5.05506L4.27503 5.05509L4.27501 5.05511L4.27498 5.05513L4.27496 5.05516L4.27494 5.05518L4.27491 5.0552L4.27489 5.05523L4.27487 5.05525L4.27484 5.05527L4.27482 5.0553L4.2748 5.05532L4.27477 5.05534L4.27475 5.05537L4.27473 5.05539L4.2747 5.05541L4.27468 5.05544L4.27466 5.05546L4.27463 5.05548L4.27461 5.05551L4.27458 5.05553L4.27456 5.05556L4.27454 5.05558L4.27451 5.0556L4.27449 5.05563L4.27447 5.05565L4.27444 5.05567L4.27442 5.0557L4.27439 5.05572L4.27437 5.05575L4.27435 5.05577L4.27432 5.05579L4.2743 5.05582L4.27428 5.05584L4.27425 5.05586L4.27423 5.05589L4.2742 5.05591L4.27418 5.05594L4.27416 5.05596L4.27413 5.05598L4.27411 5.05601L4.27408 5.05603L4.27406 5.05606L4.27404 5.05608L4.27401 5.0561L4.27399 5.05613L4.27396 5.05615L4.27394 5.05618L4.27392 5.0562L4.27389 5.05623L4.27387 5.05625L4.27384 5.05627L4.27382 5.0563L4.27379 5.05632L4.27377 5.05635L4.27374 5.05637L4.27372 5.0564L4.2737 5.05642L4.27367 5.05645L4.27365 5.05647L4.27362 5.05649L4.2736 5.05652L4.27357 5.05654L4.27355 5.05657L4.27352 5.05659L4.2735 5.05662L4.27347 5.05664L4.27345 5.05667L4.27343 5.05669L4.2734 5.05672L4.27338 5.05674L4.27335 5.05677L4.27333 5.05679L4.2733 5.05682L4.27328 5.05684L4.27325 5.05687L4.27323 5.05689L4.2732 5.05692L4.27318 5.05694L4.27315 5.05697L4.27313 5.05699L4.2731 5.05702L4.27308 5.05704L4.27305 5.05707L4.27303 5.05709L4.273 5.05712L4.27297 5.05714L4.27295 5.05717L4.27292 5.05719L4.2729 5.05722L4.27287 5.05724L4.27285 5.05727L4.27282 5.05729L4.2728 5.05732L4.27277 5.05735L4.27275 5.05737L4.27272 5.0574L4.27269 5.05742L4.27267 5.05745L4.27264 5.05747L4.27262 5.0575L4.27259 5.05753L4.27256 5.05755L4.27254 5.05758L4.27251 5.0576L4.27249 5.05763L4.27246 5.05766L4.27243 5.05768L4.27241 5.05771L4.27238 5.05773L4.27236 5.05776L4.27233 5.05779L4.2723 5.05781L4.27228 5.05784L4.27225 5.05787L4.27222 5.05789L4.2722 5.05792L4.27217 5.05794L4.27215 5.05797L4.27212 5.058L4.27209 5.05802L4.27207 5.05805L4.27204 5.05808L4.27201 5.0581L4.27199 5.05813L4.27196 5.05816L4.27193 5.05819L4.2719 5.05821L4.27188 5.05824L4.27185 5.05827L4.27182 5.05829L4.2718 5.05832L4.27177 5.05835L4.27174 5.05837L4.27171 5.0584L4.27169 5.05843L4.27166 5.05846L4.27163 5.05848L4.27161 5.05851L4.27158 5.05854L4.27155 5.05857L4.27152 5.05859L4.2715 5.05862L4.27147 5.05865L4.27144 5.05868L4.27141 5.0587L4.27138 5.05873L4.27136 5.05876L4.27133 5.05879L4.2713 5.05882L4.27127 5.05884L4.27125 5.05887L4.27122 5.0589L4.27119 5.05893L4.27116 5.05896L4.27113 5.05898L4.2711 5.05901L4.27108 5.05904L4.27105 5.05907L4.27102 5.0591L4.27099 5.05913L4.27096 5.05915L4.27093 5.05918L4.27091 5.05921L4.27088 5.05924L4.27085 5.05927L4.27082 5.0593L4.27079 5.05933L4.27076 5.05935L4.27073 5.05938L4.2707 5.05941L4.27067 5.05944L4.27065 5.05947L4.27062 5.0595L4.27059 5.05953L4.27056 5.05956L4.27053 5.05959L4.2705 5.05962L4.27047 5.05965L4.27044 5.05968L4.27041 5.05971L4.27038 5.05973L4.27035 5.05976L4.27032 5.05979L4.27029 5.05982L4.27026 5.05985L4.27023 5.05988L4.2702 5.05991L4.27017 5.05994L4.27014 5.05997L4.27011 5.06L4.27008 5.06003L4.27005 5.06006L4.27002 5.06009L4.26999 5.06012L4.26996 5.06015L4.26993 5.06019L4.2699 5.06022C4.1547 5.17542 4.10345 5.29093 4.08992 5.40103C4.07654 5.50985 4.10063 5.60867 4.1276 5.68958C4.12942 5.69505 4.13124 5.69956 4.13252 5.70275L4.13541 5.71041L4.13529 5.71045M4.28292 5.04719L4.13529 5.71045M4.13529 5.71045L4.13668 5.71381M4.13529 5.71045L4.13668 5.71381M4.13668 5.71381C4.33942 6.2009 4.6208 6.66326 5.05788 7.21288L5.05818 7.21325M4.13668 5.71381L5.05818 7.21325M5.05818 7.21325C5.84238 8.18043 6.66926 8.93169 7.58068 9.51054L5.05818 7.21325ZM3.23806 9.12543L3.23814 9.12552C4.48234 10.6128 5.98032 11.7841 7.6901 12.6128L7.6905 12.613C8.34018 12.9209 9.2146 13.289 10.1908 13.3522L10.1918 13.3522L10.1993 13.3526C10.2564 13.355 10.3125 13.3575 10.3711 13.3575C11.0326 13.3575 11.5668 13.1283 12.001 12.6573C12.0033 12.655 12.0105 12.6478 12.0165 12.6383C12.1547 12.4719 12.3107 12.3207 12.4764 12.1599C12.4885 12.1482 12.5006 12.1364 12.5128 12.1246C12.6354 12.0072 12.761 11.8843 12.8814 11.7586C13.1662 11.4617 13.3114 11.1216 13.3108 10.7807C13.3101 10.4397 13.1634 10.1039 12.8755 9.81599L11.3109 8.25139C11.3108 8.25127 11.3106 8.25115 11.3105 8.25103C11.037 7.96694 10.7069 7.81413 10.3581 7.81413C10.0092 7.81413 9.67663 7.96698 9.39551 8.2481L8.49 9.1536C8.41347 9.11094 8.33598 9.0722 8.26355 9.03598L8.26298 9.0357C8.15874 8.98358 8.06449 8.93512 7.98097 8.88197L7.98093 8.88194C7.13718 8.34619 6.37024 7.6469 5.63607 6.74677C5.27559 6.29046 5.03182 5.90711 4.86032 5.51995C5.09637 5.3048 5.31787 5.08067 5.53127 4.86225L5.53143 4.86208C5.60923 4.78169 5.68968 4.70124 5.77047 4.62045C6.05899 4.33193 6.21746 3.99426 6.21746 3.64748C6.21746 3.30093 6.06178 2.9632 5.77041 2.67446C5.77038 2.67442 5.77034 2.67439 5.77031 2.67435L4.99434 1.89838C4.9059 1.80994 4.82235 1.72394 4.73625 1.6353L4.7292 1.62805C4.7292 1.62804 4.72919 1.62804 4.72919 1.62803C4.55738 1.45102 4.37708 1.26809 4.19911 1.10317C3.92292 0.83256 3.59582 0.688281 3.24784 0.688281C2.90217 0.688281 2.57252 0.832789 2.28614 1.10578L2.28613 1.10577L2.28529 1.10662L1.31121 2.08069C0.948719 2.44319 0.742986 2.88395 0.700319 3.39328L0.700302 3.39349C0.650073 4.02532 0.766708 4.69433 1.06527 5.49836C1.52338 6.7418 2.2142 7.89523 3.23806 9.12543ZM11.9701 11.6316C11.7977 11.799 11.6175 11.9739 11.4535 12.1701L8.24377 9.87235C8.24386 9.8724 8.24395 9.87245 8.24404 9.87249C8.33619 9.91992 8.42724 9.94302 8.5193 9.94302C8.74937 9.94302 8.89752 9.79647 8.94272 9.75127L9.9168 8.77719C10.0618 8.63216 10.2139 8.56004 10.3581 8.56004C10.5353 8.56004 10.6844 8.67033 10.7824 8.77586L10.7824 8.77588L10.7837 8.77722L12.3542 10.3451C12.3542 10.3451 12.3542 10.3451 12.3542 10.3451C12.5042 10.4951 12.5732 10.6457 12.572 10.7934C12.5708 10.9416 12.499 11.0973 12.3457 11.257L12.3452 11.2575C12.2368 11.3736 12.123 11.4849 12.0008 11.6019L12.0005 11.6022C11.9904 11.612 11.9803 11.6218 11.9701 11.6316Z" fill="white" stroke="white" stroke-width="0.1"/>
</svg>
