<svg width="17" height="20" viewBox="0 0 17 20" fill="none" xmlns="http://www.w3.org/2000/svg">
<path d="M16.6614 17.2126L12.9157 12.6229C14.006 11.312 14.6517 9.60155 14.5911 7.70308C14.487 4.47382 12.1382 1.61651 8.98958 0.88963C4.30824 -0.190759 -0.0832497 3.39241 0.0364846 8.1948C0.117175 11.4263 2.44582 14.3023 5.5895 15.0499C7.43746 15.4899 9.24321 15.2007 10.746 14.3953L14.4917 18.9851C14.9805 19.584 15.8625 19.6733 16.4615 19.1846C17.06 18.6951 17.1496 17.8108 16.6614 17.2126ZM2.82664 7.52074C3.07558 5.06343 5.27747 3.26684 7.73505 3.5158C10.1926 3.76477 11.9895 5.96646 11.7405 8.42377C11.4916 10.8811 9.28971 12.6777 6.83212 12.4287C4.37454 12.1797 2.57763 9.97875 2.82664 7.52074Z" fill="white"/>
</svg>
